PathFileType	4	(X/Y/Z)	C:/Users/beibeiliu/ov580/test_trc/User3\sequence.8_training_dense_left.trc
DataRate	CameraRate	NumFrames	NumMarkers	Units	OrigDataRate	OrigDataStartFrame	OrigNumFrames
120	120	9	19	mm	120	147	235
Frame#	Time	ThumbCMC			ThumbMCP			ThumbIP			ThumbTip			IndexMCP			IndexPIP			IndexTip			MiddleMCP			MiddlePIP			MiddleTip			RingMCP			RingPIP			RingTip			PinkyMCP			PinkyPIP			PinkyTip			BackHand1			BackHand2			BackHand3	
		X0	Y0	Z0	X1	Y1	Z1	X2	Y2	Z2	X3	Y3	Z3	X4	Y4	Z4	X5	Y5	Z5	X6	Y6	Z6	X7	Y7	Z7	X8	Y8	Z8	X9	Y9	Z9	X10	Y10	Z10	X11	Y11	Z11	X12	Y12	Z12	X13	Y13	Z13	X14	Y14	Z14	X15	Y15	Z15	X16	Y16	Z16	X17	Y17	Z17	X18	Y18	Z18	
146	1.21667	-167.148	-3.8486	13.2933	-155.073	-15.2907	-15.7436	-151.359	-29.1388	-43.5677	-170.845	-44.2542	-56.7065	-196.094	12.4207	-55.9483	-196.114	16.7076	-79.1821	-205.39	18.816	-108.297	-206.781	-10.1828	-63.0296	-195.415	-39.3893	-75.4221	-179.657	-49.1446	-40.3428	-215.311	-31.6362	-52.5865	-198.981	-58.6666	-45.0932	-191.846	-50.1409	-17.0693	-227.303	-44.3122	-36.9599	-207.488	-61.6401	-32.4349	-197.555	-50.9836	-3.47285	-227.249	0.0728106	-3.01447	-228.982	1.7573	26.4363	-200.301	16.2552	9.80643	
147	1.225	-167.612	-0.665498	11.4726	-153.383	-9.94626	-17.3347	-159.521	-22.6818	-44.2865	-171.164	-38.6894	-62.9595	-198.021	18.8466	-52.9299	-204.618	22.554	-77.1169	-212.819	26.1319	-100.383	-213.348	-9.27208	-62.7641	-198.896	-32.7467	-78.0063	-180.951	-45.5067	-45.1798	-220.758	-28.3237	-50.2645	-200.374	-52.7333	-50.0922	-192.535	-45.5021	-17.0986	-230.969	-42.6178	-38.4853	-206.543	-58.6443	-33.4151	-198.814	-49.0137	-4.82833	-232.085	-0.36248	-3.95916	-227.449	0.766395	31.793	-198.014	17.0152	11.4695	
148	1.23333	-167.12	3.14126	13.4245	-157.482	-5.14537	-20.0104	-160.594	-16.7447	-46.5298	-172.604	-33.7749	-65.3032	-204.66	20.6247	-49.5882	-214.127	25.4091	-73.3777	-225.854	30.2382	-97.2669	-214.73	-2.5113	-61.7887	-200.589	-28.3163	-78.364	-185.105	-41.6275	-43.9534	-223.695	-26.5481	-51.4	-203.514	-48.8948	-53.0941	-189.876	-40.9972	-22.0321	-231.612	-38.1083	-38.5957	-208.069	-55.1798	-37.5758	-199.592	-47.258	-7.72069	-233.171	0.719126	-2.70037	-227.112	1.87473	33.5788	-202.503	18.2953	11.4453	
149	1.24167	-171.325	4.89643	11.9222	-156.083	-0.707532	-19.6511	-162.14	-11.7602	-52.2179	-179.63	-28.4563	-66.857	-212.299	24.7385	-52.454	-221.634	28.0073	-70.4222	-233.079	35.7394	-96.5939	-218.378	0.827056	-59.8571	-206.275	-24.6759	-79.2045	-183.545	-34.7877	-42.2351	-223.636	-20.3308	-52.2513	-205.135	-45.8897	-53.5467	-193.77	-42.6558	-23.9537	-234.034	-34.1978	-37.3795	-214.534	-53.9021	-40.7583	-202.132	-46.6153	-11.6107	-236.913	1.56463	-0.491446	-231.608	-2.07697	32.7663	-203.44	21.3687	12.6862	
150	1.25	-175.896	8.64226	8.24498	-163.354	3.9518	-24.1905	-163.786	-5.09381	-50.6125	-178.608	-22.4684	-68.7327	-218.053	25.9344	-48.117	-229.102	34.4397	-72.3353	-244.627	35.6303	-90.4484	-226.089	-0.765857	-61.7736	-208.374	-24.4919	-76.5313	-187.396	-31.658	-47.932	-225.716	-18.3294	-54.7376	-206.391	-42.2612	-54.5847	-194.251	-36.7804	-25.1038	-237.749	-35.5574	-40.2851	-213.013	-50.3474	-41.2456	-200.206	-45.4291	-12.1358	-237.36	1.76808	3.43035	-231.779	-2.84385	32.0342	-208.893	22.3451	13.5383	
151	1.25833	-176.636	14.748	6.48762	-170.316	8.88012	-23.1294	-171.045	-0.0852307	-55.5153	-186.29	-18.6966	-66.0152	-225.033	27.1221	-46.3096	-238.29	32.3517	-68.7782	-254.669	34.5593	-89.2509	-231.415	0.3317	-58.4879	-213.079	-20.8735	-79.0066	-188.999	-27.8164	-46.4395	-231.195	-20.293	-54.758	-208.155	-39.382	-55.6605	-195.71	-36.2322	-27.6984	-236.686	-33.6837	-41.5795	-214.382	-50.0093	-42.5942	-201.937	-46.278	-16.5225	-245.369	-0.234681	1.1146	-236.722	-5.18516	32.3059	-217.319	19.6588	10.4827	
152	1.26667	-182.512	16.3146	6.19488	-171.454	12.7016	-21.9319	-173.728	3.93058	-53.2858	-187.426	-14.8885	-67.952	-232.939	28.0164	-48.6021	-246.571	32.6299	-70.1016	-262.068	32.717	-86.1979	-236.686	0.141119	-60.3817	-215.854	-17.4168	-80.2361	-192.986	-26.5803	-49.2179	-235.683	-18.2137	-51.7838	-213.221	-38.1909	-58.0739	-198.889	-32.2359	-25.3917	-241.262	-38.0566	-40.2039	-214.594	-46.2458	-43.6984	-203.046	-41.6971	-17.1077	-246.219	-2.8296	4.39057	-237.455	-3.23366	33.3109	-220.991	19.6874	13.7254	
153	1.275	-187.923	16.4892	6.34986	-175.402	16.4034	-25.6804	-181.915	3.85043	-53.0072	-190.146	-14.0645	-67.1518	-238.653	22.0324	-45.1692	-256.037	28.1884	-70.5068	-272.488	25.0384	-87.6521	-240.174	-0.612972	-63.5599	-220.843	-20.4667	-79.5386	-193.509	-23.2156	-49.9976	-241.366	-23.4012	-49.5497	-213.384	-40.123	-57.3028	-199.091	-32.4838	-30.7162	-240.953	-36.7545	-39.1209	-215.094	-49.4779	-41.8095	-203.719	-42.7995	-17.3749	-251.132	-6.37456	1.2989	-240.566	-7.21057	35.4145	-225.339	19.6698	14.8576	
154	1.28333	-191.793	18.128	5.19716	-179.617	18.4448	-29.0921	-184.379	4.86275	-59.0011	-196.27	-15.8079	-65.5771	-246.306	22.6174	-49.347	-262.099	19.9148	-68.071	-276.183	18.4003	-85.8686	-244.686	-6.80502	-60.4823	-221.974	-21.0174	-80.4866	-194.708	-22.9208	-48.5223	-240.732	-21.89	-50.0571	-214.251	-41.7506	-55.8631	-200.762	-32.2773	-28.6873	-243.157	-41.9288	-37.3498	-214.878	-47.6793	-44.3021	-204.346	-43.4048	-19.1434	-250.858	-6.46457	3.18383	-240.964	-9.2836	35.4703	-227.509	19.3721	10.2048	
